<svg xmlns="http://www.w3.org/2000/svg" width="131" height="87.134" viewBox="0 0 131 87.134">
  <g id="logo-icon" transform="translate(0 0)">
    <path id="Path_1" data-name="Path 1" d="M282.534,120.3a11.171,11.171,0,0,0-3.764-3.715,35.484,35.484,0,0,0-16.583-6.129,13.083,13.083,0,0,0-13.62,7.392,14.779,14.779,0,0,1-1.156,2,3.921,3.921,0,0,1-.825.875H231.315l-2.815,2.815,1.861,1.861h14.916a2.282,2.282,0,0,1,1.238.574,14.544,14.544,0,0,1,2.187,2.992c2.476,4.639,6.286,7.214,11.556,7.161a35.619,35.619,0,0,0,7.549-1.1,26.418,26.418,0,0,0,13.773-7.429A6.133,6.133,0,0,0,282.534,120.3Z" transform="translate(-152.324 -80.129)" fill="#8d634b"/>
    <path id="Path_2" data-name="Path 2" d="M75.392,135.035a36.859,36.859,0,0,0,3.017-3.3,4.845,4.845,0,0,1,2.344-1.717H93.932l1.861-1.861-2.815-2.815H81.145a3.863,3.863,0,0,1-2.126-1.168c-1.09-1.193-2.2-2.369-3.252-3.591a5.939,5.939,0,0,0-3.161-1.886,23.786,23.786,0,0,0-7.908-.33q-10.38.887-20.768,1.783V122H64.814a6.384,6.384,0,0,1,1.09.058,1.391,1.391,0,0,1-.078,2.753,9.493,9.493,0,0,1-1.189.029H43.93v1.312H64.921a4.35,4.35,0,0,1,1.09.062,1.292,1.292,0,0,1,1.04,1.5,1.238,1.238,0,0,1-1.238,1.238c-.334.029-.673,0-1.007,0H43.93v1.358H65.672a1.333,1.333,0,0,1,1.4,1.424,1.383,1.383,0,0,1-1.378,1.407H43.93v1.948l9.109.735c3.43.285,6.855.644,10.289.875,2.369.161,4.746.256,7.115.186A6.851,6.851,0,0,0,75.392,135.035Z" transform="translate(-43.93 -84.745)" fill="#8d634b"/>
    <path id="Path_3" data-name="Path 3" d="M138.289,21.43h-5.8l-32,32-31.994-32h-5.8l34.9,34.9L63.037,90.879h5.8l31.648-31.648,31.652,31.648h5.8L103.389,56.33Z" transform="translate(-36.816 -12.585)" fill="#68813c"/>
    <path id="Path_4" data-name="Path 4" d="M192.224,52.5a6.191,6.191,0,0,0,2.637.64,5.538,5.538,0,0,1-.136,1.457,43.6,43.6,0,0,0-5,.244q-.07-.107-1.317-1.874l-1.527-2.117a14.223,14.223,0,0,0-1.651-2.01,12.175,12.175,0,0,0-2.064-1.49l-1.321.033-1.176-.033v3.153a5.985,5.985,0,0,0,.173,1.651,1.238,1.238,0,0,0,.57.764,3.36,3.36,0,0,0,1.2.277,4.6,4.6,0,0,1,.173,1.457q-1.279-.066-3.781-.07-1.841,0-3.781.07A4.594,4.594,0,0,1,175.4,53.2a3.9,3.9,0,0,0,1.3-.277,1.18,1.18,0,0,0,.607-.731,5.258,5.258,0,0,0,.173-1.56V41.244a3.257,3.257,0,0,0-.413-1.977,2.3,2.3,0,0,0-1.651-.553,5.122,5.122,0,0,1-.173-1.527c.879.045,2.064.07,3.574.07q1.238,0,3.19-.07l1.944-.037q3.715,0,5.394,1.267a4.032,4.032,0,0,1,1.68,3.384,4.433,4.433,0,0,1-1.2,3.174,6.4,6.4,0,0,1-3.38,1.75,5.4,5.4,0,0,1,1.593,1.164c.413.45,1.123,1.337,2.117,2.654A6.484,6.484,0,0,0,192.224,52.5ZM186.1,44.765a3.2,3.2,0,0,0,.4-5.233,6.227,6.227,0,0,0-3.748-.9,10.772,10.772,0,0,0-2.064.206v6.711a10.094,10.094,0,0,0,1.354.1A8.254,8.254,0,0,0,186.1,44.765Z" transform="translate(-121.034 -37.15)" fill="#e64b38"/>
    <path id="Path_5" data-name="Path 5" d="M193.5,223.4c-1.238-.05-2.542-.07-3.884-.07-1.205,0-2.476.021-3.818.07a6.574,6.574,0,0,1,.173-1.457,3.157,3.157,0,0,0,1.564-.433,1.564,1.564,0,0,0,.413-1.267c0-.161-.045-.66-.136-1.49l-1.077-8.254-6.191,12.382a3.942,3.942,0,0,1-1.354.206l-6.418-12.522-.97,7.318a14.6,14.6,0,0,0-.1,1.6,2.858,2.858,0,0,0,.466,1.874,2.311,2.311,0,0,0,1.614.59,5,5,0,0,1,.173,1.457c-1.238-.05-2.348-.07-3.3-.07-1.019,0-2.064.021-3.124.07a5,5,0,0,1,.173-1.457,2.522,2.522,0,0,0,1.3-.413,2.258,2.258,0,0,0,.731-1.2,14.246,14.246,0,0,0,.413-2.518l.97-7.631a4.876,4.876,0,0,0,.037-.693,2.091,2.091,0,0,0-.47-1.593,2.446,2.446,0,0,0-1.614-.413,5.961,5.961,0,0,1-.169-1.56c.875.045,1.721.066,2.53.066q.97,0,2.476-.066l6.765,13,6.418-13q1.531.07,2.6.066.825,0,2.5-.066a5.49,5.49,0,0,1-.173,1.56,2.266,2.266,0,0,0-1.564.466,2.064,2.064,0,0,0-.52,1.581,5.731,5.731,0,0,0,.037.726l1.073,8.188a14.346,14.346,0,0,0,.433,2.183,1.82,1.82,0,0,0,.627.974,2.443,2.443,0,0,0,1.16.347A5,5,0,0,1,193.5,223.4Z" transform="translate(-116.514 -136.27)" fill="#e64b38"/>
  </g>
</svg>
